<svg width="101" height="90" viewBox="0 0 101 90" fill="none" xmlns="http://www.w3.org/2000/svg">
<rect x="6.77017" y="0.633803" width="88.7324" height="88.7324" rx="9.50704" stroke="white" stroke-width="1.26761"/>
<rect y="42.9545" width="12.2727" height="4.60227" fill="white"/>
<rect x="90" y="18.4091" width="10.2273" height="10.2273" fill="white"/>
<rect x="90" y="57.2727" width="10.2273" height="10.2273" fill="white"/>
<path d="M61.3636 33.75C61.7045 26.5909 64.7828 23.5227 70.5682 23.5227C76.7045 23.5227 83.8636 23.5227 90 23.5227" stroke="white" stroke-width="1.02273"/>
<path d="M63.4091 51.1364C63.75 58.2955 66.8282 63.4091 72.6136 63.4091C78.75 63.4091 85.9091 63.4091 92.0455 63.4091" stroke="white" stroke-width="1.02273"/>
<path d="M11.25 45H32.7273" stroke="white" stroke-width="1.02273"/>
<path d="M61.3595 35.0325C62.0168 34.8593 62.7 34.7727 63.4091 34.7727C64.5723 34.7739 65.7218 35.0231 66.7811 35.5037C67.8403 35.9843 68.785 36.6852 69.5519 37.5597C70.3189 38.4342 70.8906 39.4622 71.2289 40.5751C71.5671 41.688 71.6642 42.8603 71.5137 44.0137C71.3631 45.167 70.9683 46.2751 70.3557 47.2639C69.743 48.2526 68.9266 49.0994 67.9608 49.7477C66.9951 50.396 65.9022 50.8309 64.7551 51.0235C63.6079 51.216 62.4329 51.1618 61.3084 50.8643M61.3595 35.0325L61.3636 34.7727C61.3668 32.7519 60.622 30.8014 59.2728 29.297C57.9235 27.7926 56.0652 26.8408 54.056 26.6249C52.0468 26.409 50.0287 26.9443 48.3906 28.1277C46.7525 29.311 45.6103 31.0587 45.1841 33.0341M61.3595 35.0325C61.3173 36.3799 60.9428 37.6959 60.2693 38.8636M61.3084 50.8643C61.3452 50.6189 61.3636 50.3686 61.3636 50.1136C61.3639 48.9348 60.9568 47.7921 60.2113 46.8788C59.4659 45.9656 58.4278 45.338 57.2727 45.1023M61.3084 50.8643C61.1284 52.0772 60.5186 53.185 59.5901 53.9859C58.6615 54.7868 57.4762 55.2273 56.25 55.2273H55.2273C53.0573 55.2273 50.9762 56.0893 49.4419 57.6237C47.9075 59.1581 47.0455 61.2391 47.0455 63.4091M45.1841 33.0341C43.7775 32.6347 42.2896 32.6195 40.8752 32.9902C39.4608 33.3608 38.1715 34.1037 37.1416 35.1416C36.1117 36.1795 35.3787 37.4744 35.0189 38.8916C34.6591 40.3088 34.6857 41.7965 35.0959 43.2M45.1841 33.0341C47.2344 33.6147 48.9773 34.9723 50.042 36.8182M35.0959 43.2C33.6805 43.6164 32.4645 44.5286 31.6668 45.7696C30.869 47.0107 30.5449 48.4975 30.7538 49.958C30.9627 51.4185 31.6906 52.7548 32.8042 53.7225C33.9179 54.6902 35.3428 55.2243 36.8182 55.2273C38.0877 55.2279 39.3262 54.8348 40.3629 54.1022C41.3997 53.3695 42.1836 52.3333 42.6068 51.1364M35.0959 43.2C35.2814 43.8368 35.5398 44.4368 35.867 45M50.8009 44.4764C49.7577 45.4807 47.972 45.6545 46.4461 44.7975C44.9202 43.9384 44.1409 42.3225 44.458 40.9091" stroke="white" stroke-width="2.04545" stroke-linecap="round" stroke-linejoin="round"/>
<circle cx="47.0455" cy="69.5455" r="4.09091" fill="#D9D9D9"/>
</svg> 