<svg width="142" height="142" viewBox="0 0 142 142" fill="none" xmlns="http://www.w3.org/2000/svg">
<g id="Frame 1">
<g id="Group">
<path id="Vector" d="M48.6821 59.2358C49.7636 56.0709 54.1367 55.975 55.4189 58.9483L55.5274 59.2376L56.9869 63.5058C57.3214 64.4846 57.8619 65.3803 58.572 66.1325C59.282 66.8847 60.1452 67.4759 61.1031 67.8661L61.4956 68.0126L65.7637 69.4703C68.9287 70.5518 69.0245 74.9249 66.0531 76.2071L65.7637 76.3156L61.4956 77.7751C60.5164 78.1094 59.6203 78.6498 58.8678 79.3598C58.1153 80.0699 57.5239 80.9332 57.1334 81.8913L56.9869 82.282L55.5292 86.5519C54.4477 89.7169 50.0747 89.8127 48.7942 86.8413L48.6821 86.5519L47.2244 82.2838C46.8902 81.3046 46.3498 80.4085 45.6397 79.656C44.9296 78.9035 44.0664 78.3121 43.1082 77.9216L42.7176 77.7751L38.4494 76.3174C35.2827 75.2359 35.1868 70.8629 38.1601 69.5824L38.4494 69.4703L42.7176 68.0126C43.6964 67.6782 44.5921 67.1377 45.3443 66.4276C46.0965 65.7175 46.6877 64.8544 47.078 63.8964L47.2244 63.5058L48.6821 59.2358ZM66.5739 53C66.9123 53 67.2438 53.0949 67.5309 53.2739C67.818 53.453 68.0491 53.709 68.198 54.0128L68.2848 54.2244L68.9178 56.0799L70.7752 56.7129C71.1142 56.8281 71.4115 57.0414 71.6292 57.3257C71.8469 57.61 71.9754 57.9525 71.9982 58.3099C72.0211 58.6673 71.9373 59.0234 71.7576 59.3331C71.5779 59.6428 71.3102 59.8922 70.9886 60.0497L70.7752 60.1365L68.9196 60.7695L68.2866 62.6268C68.1712 62.9658 67.9578 63.2629 67.6734 63.4804C67.389 63.698 67.0464 63.8262 66.689 63.8489C66.3317 63.8716 65.9756 63.7876 65.666 63.6077C65.3564 63.4278 65.1072 63.1601 64.9499 62.8384L64.8631 62.6268L64.2301 60.7713L62.3727 60.1383C62.0337 60.0231 61.7364 59.8098 61.5187 59.5255C61.3009 59.2412 61.1725 58.8987 61.1497 58.5413C61.1268 58.1839 61.2105 57.8278 61.3903 57.5181C61.57 57.2084 61.8377 56.959 62.1593 56.8015L62.3727 56.7147L64.2283 56.0817L64.8613 54.2244C64.9832 53.8671 65.2139 53.5569 65.5211 53.3373C65.8282 53.1177 66.1964 52.9998 66.5739 53Z" fill="white"/>
</g>
<path id="Vector_2" d="M89.886 69.3L87.543 66.9333C88.9015 65.5625 90.5647 64.5397 92.394 63.95L93.2025 67.1833C91.734 67.7167 90.7275 68.4667 89.886 69.3ZM98.4 71.3333L105 64.6667L98.4 58L98.4 63.0333C97.0635 63.0667 95.859 63.1667 94.8195 63.35L95.628 66.5833C96.42 66.4667 97.3605 66.3833 98.4 66.3667L98.4 71.3333ZM98.4 88L105 81.3333L98.4 74.6667L98.4 79.65C92.328 79.4833 90.5625 77.5167 88.698 75.4167C87.972 74.5833 87.18 73.7333 86.1405 73C86.949 72.4333 87.5925 71.7833 88.1865 71.1167L85.86 68.7667C84.4575 70.3167 83.319 71.3333 80.25 71.3333L72 71.3333L72 74.6667L80.25 74.6667C83.583 74.6667 84.639 75.85 86.2395 77.65C88.2855 79.95 90.8265 82.7833 98.4 82.9833L98.4 88Z" fill="white"/>
</g>
</svg> 